HIERARCHY
ROOT hip
{
  OFFSET 0.0 0.0 0.0
  CHANNELS 6 Xposition Yposition Zposition Zrotation Yrotation Xrotation
  JOINT torso
  {
    OFFSET 0.0 0.0 0.0
    CHANNELS 3 Zrotation Xrotation Yrotation
    JOINT neck
    {
      OFFSET -31.42098999999993 328.8025209999999 74.3554680000002
      CHANNELS 3 Zrotation Xrotation Yrotation
      JOINT head
      {
        OFFSET 3.3519900000001144 303.81732099999994 206.53942900000015
        CHANNELS 3 Zrotation Xrotation Yrotation
        End Site
        {
          OFFSET 0.0 0.0 0.0
        }
      }
    }
    JOINT left_collar
    {
      OFFSET -31.42098999999993 328.8025209999999 74.3554680000002
      CHANNELS 3 Zrotation Xrotation Yrotation
      JOINT left_upper_arm
      {
        OFFSET -124.490479 -8.162841999999841 8.226441000000023
        CHANNELS 3 Zrotation Xrotation Yrotation
        JOINT left_forearm
        {
          OFFSET -253.595764 -1.5758060000000569 105.0729980000001
          CHANNELS 3 Zrotation Xrotation Yrotation
          JOINT left_hand
          {
            OFFSET -269.48803699999996 0.1478270000000066 -55.346191999999974
            CHANNELS 3 Zrotation Xrotation Yrotation
            End Site
            {
              OFFSET 0.0 0.0 0.0
            }
          }
        }
      }
    }
    JOINT right_collar
    {
      OFFSET -31.42098999999993 328.8025209999999 74.3554680000002
      CHANNELS 3 Zrotation Xrotation Yrotation
      JOINT right_upper_arm
      {
        OFFSET 162.02484099999998 0.46441600000002836 2.2303470000001653
        CHANNELS 3 Zrotation Xrotation Yrotation
        JOINT right_forearm
        {
          OFFSET 240.01246700000004 -25.835875999999985 121.34179699999959
          CHANNELS 3 Zrotation Xrotation Yrotation
          JOINT right_hand
          {
            OFFSET 252.48539699999992 18.910399999999868 -67.53466800000001
            CHANNELS 3 Zrotation Xrotation Yrotation
            End Site
            {
              OFFSET 0.0 0.0 0.0
            }
          }
        }
      }
    }
  }
}
MOTION
Frames: 11
Frame Time: 0.01
-352.14845695337965 277.4715577099217 561.3463941237317 1.83803118878794 -0.9645491338535943 -10.857191375069233 -0.3997307670125454 3.207424350198557 0.3881181551892173 -3.9228197105713356 -12.239933661271456 3.0054893194372467 0.0 0.0 0.0 0.6775029235822081 0.11688799426513191 -1.007275165908353 44.04859071729551 8.283429895118875 24.420953216774883 32.98994600879375 18.052166077218725 -79.75786758373816 0.0 0.0 0.0 0.039736654799222115 -0.018747964412478346 5.65605400442783 -48.02477929491469 5.729631250558414 -34.133335389162376 -44.60768447368 -5.192636484481095 20.549936351431892 0.0 0.0 0.0
-351.7714214046013 277.47885837212243 561.2458320078376 1.8447036206582135 -0.9785081026915423 -10.967314202374425 -0.40316402377873833 3.2085368010729787 0.3889053666782284 -3.927934996197565 -12.220716136760096 3.008748713851407 0.0 0.0 0.0 0.6699699728086289 0.11773617351006888 -1.027024546085871 44.04738170612686 8.350165307415233 24.26230259810199 32.59423206346404 17.894232269402814 -79.94193891591338 0.0 0.0 0.0 0.040674579033484086 -0.018739860271595667 5.635213880462301 -48.03642496136151 5.736991384232655 -34.12492714518425 -44.57518877346802 -5.193081650937654 20.53982624882604 0.0 0.0 0.0
-351.38305329707424 277.4934930091419 561.156224628143 1.8525141429753662 -0.9960113224402107 -11.081951725638339 -0.40717582420549714 3.2110681997076167 0.3899401795353365 -3.935562038992995 -12.198682082769924 3.013778561383201 0.0 0.0 0.0 0.6625304055147845 0.11835148496900477 -1.0434545488482434 44.04459272621728 8.421133259708064 24.092889758622235 32.1839897030306 17.72738928669979 -80.12779812788301 0.0 0.0 0.0 0.04107575046941669 -0.018700938415023762 5.615379026575031 -48.04963628920455 5.746102241809868 -34.114059996409296 -44.541178400031406 -5.192490375206823 20.53241819829339 0.0 0.0 0.0
-350.9808122536404 277.5158216643518 561.0793336892535 1.861807359053156 -1.0174919874703898 -11.201433452795808 -0.41182739856614753 3.215191651921914 0.3912507589035169 -3.945995850567517 -12.173421272022393 3.0207838220296486 0.0 0.0 0.0 0.6551926437830832 0.11871922783872017 -1.0563409799837793 44.0397344262945 8.496436496180317 23.912214402676444 31.758375446665326 17.551049909167308 -80.31539632030659 0.0 0.0 0.0 0.04087397550440845 -0.018627444964296733 5.596582000351231 -48.06475697947518 5.756955824866367 -34.10088435956102 -44.50612302031757 -5.190830847682166 20.52794280925871 0.0 0.0 0.0
-350.5618657677277 277.54606024002857 561.0169283776165 1.8729167494146817 -1.0432919349947045 -11.3261072292331 -0.4171752473946287 3.221016448072409 0.39285829247546306 -3.959495261626979 -12.144559165426369 3.0299434184144864 0.0 0.0 0.0 0.6479782941798133 0.11882604529129637 -1.065463880742241 44.03224667403257 8.576148846145225 23.719798311314207 31.316566994502626 17.364628874872665 -80.50467093471359 0.0 0.0 0.0 0.04002077597527782 -0.01851685180859375 5.578888206326003 -48.08212105557326 5.769509720207336 -34.08560802972422 -44.4705712923113 -5.188080936155762 20.52662454240723 0.0 0.0 0.0
-350.12310766718974 277.58426270157446 560.9707571726764 1.8861550272103156 -1.073648808838815 -11.456330050952236 -0.4232675665022173 3.2285826822320005 0.3947757773650108 -3.976275312739962 -12.111768209481601 3.041404890773389 0.0 0.0 0.0 0.6409220564703162 0.11866074740383638 -1.070619198783743 44.02149881411286 8.660310036522068 23.51519453561405 30.857778536848326 17.16754903884614 -80.69553701136539 0.0 0.0 0.0 0.0384850369864549 -0.018367791748687277 5.562389722399451 -48.10204537265269 5.783687665612917 -34.06849224924439 -44.43514187526918 -5.184229431601487 20.52867505626188 0.0 0.0 0.0
-349.66118306427444 277.63030672586245 560.9425193432415 1.901804349276932 -1.1086866386159817 -11.592456479498289 -0.4301402711840374 3.237858735055059 0.39700700306873693 -3.9965000402004582 -12.074778530974253 3.055279346306159 0.0 0.0 0.0 0.6340705620150241 0.11821518695073509 -1.0716325018158872 44.00679229901424 8.748920653718265 23.297997087076908 30.381276234708665 16.959247835410522 -80.88787784789646 0.0 0.0 0.0 0.03625192587512684 -0.018179940646972613 5.547196654948332 -48.12482274026853 5.799380915165781 -34.0498465281687 -44.40051094713605 -5.179277286041302 20.53428541910636 0.0 0.0 0.0
-349.17251961221064 277.6838836463439 560.9338369011501 1.92010670443458 -1.1484102117526442 -11.734825092239458 -0.4378128894201312 3.2487417697193317 0.3995457998494942 -4.020275857164203 -12.033387706352404 3.071636849800017 0.0 0.0 0.0 0.6274801692493104 0.11748514452089039 -1.0683741059217695 43.98736593721428 8.8419374538272 23.067850883224832 29.886393380994647 16.73918391303241 -81.08153531985941 0.0 0.0 0.0 0.03332121280724395 -0.017953857880069365 5.533426405742437 -48.15071587014648 5.816450320028013 -34.03002244231678 -44.367396371852145 -5.173238760925075 20.543617488012913 0.0 0.0 0.0
-348.65336483863695 277.7444934637525 560.9462278109162 1.9412548090017532 -1.1927034822021048 -11.883743600257596 -0.446284652340637 3.2610612625773685 0.40237562057838827 -4.047645736812347 -11.987469293938616 3.0905024066478686 0.0 0.0 0.0 0.6212138354065468 0.1164711728432318 -1.0607747723298395 43.96240392434895 8.939269240162998 22.824461663134354 29.372544779037742 16.506843823344173 -81.27630014050105 0.0 0.0 0.0 0.029705183969639646 -0.01769080090263651 5.521191415523826 -48.17995230153821 5.834729010067807 -34.00940667313461 -44.336538868628864 -5.166142398103435 20.556794859183597 0.0 0.0 0.0
-348.0998292825677 277.8114455698221 560.9810812540279 1.9653838251634639 -1.2413321183770762 -12.039473449746831 -0.4555311431882807 3.2745854651417337 0.40546951745524384 -4.07858440490154 -11.93697984341179 3.111852688756533 0.0 0.0 0.0 0.6153372782811862 0.11517934614364715 -1.0488409377337702 43.931046727433085 9.040773540346866 22.56760555233683 28.839239937725036 16.261748667527026 -81.47190232754896 0.0 0.0 0.0 0.025426385963091998 -0.01739253309309265 5.51058613143675 -48.21272038210058 5.854025538685385 -33.98841357225868 -44.308680751911844 -5.158031731443353 20.57389386206934 0.0 0.0 0.0
-347.50793511767097 277.88386567009667 561.0396357285063 1.9925641829420149 -1.2939501529160353 -12.202214853520857 -0.46550186405547683 3.2890305774586763 0.4087905619133884 -4.112994740515393 -11.881964133315408 3.1356136459267305 0.0 0.0 0.0 0.6099147281041435 0.11362186129167412 -1.0326683367092762 43.892404783534076 9.14625431502795 22.297137942162475 28.28609476001191 16.00346062652921 -81.66800212043373 0.0 0.0 0.0 0.020515461074528382 -0.017061145311254557 5.501674090628182 -48.2491662995365 5.874127347668238 -33.96747751741058 -44.284542992907575 -5.148965674853122 20.594935090118128 0.0 0.0 0.0
